<svg xmlns="http://www.w3.org/2000/svg" width="120" height="37.5" viewBox="-60 -60 120 37.5" style="background-color: #000000;">
  <path id="codestar" fill="white" d="m-39.026-42.953-2.206 2.217q-.165-.463-.452-.827-.287-.375-.65-.629-.354-.253-.773-.386-.419-.132-.86-.132-.618 0-1.17.254-.54.253-.948.717-.397.452-.628 1.08-.232.63-.232 1.39 0 .618.232 1.158.231.54.628.949.408.408.949.64.551.23 1.169.23.441 0 .849-.12.408-.122.761-.342.364-.232.64-.552.286-.33.463-.728l2.206 2.217q-.42.596-.97 1.07-.541.474-1.18.805-.63.33-1.335.496-.695.177-1.434.177-1.246 0-2.35-.463-1.091-.475-1.918-1.29-.817-.817-1.29-1.909Q-50-38.023-50-39.269q0-1.356.474-2.537.474-1.18 1.29-2.05.828-.883 1.92-1.39 1.103-.508 2.349-.508.739 0 1.445.188.716.187 1.356.551.65.353 1.191.871.552.519.949 1.191zm25.52 9.463h-.727l-1.17-1.621q-.43.386-.915.728-.474.33-1.003.584-.53.243-1.092.386-.552.144-1.125.144-1.246 0-2.35-.463-1.091-.475-1.918-1.302-.817-.838-1.29-1.974-.475-1.147-.475-2.492 0-1.335.474-2.482.474-1.147 1.29-1.985.828-.838 1.92-1.313 1.103-.474 2.349-.474.397 0 .816.066.43.066.827.22.408.144.761.387.353.243.596.595V-50h3.033zm-3.032-6.01q0-.618-.243-1.192-.232-.584-.64-1.025-.408-.452-.96-.717-.54-.276-1.157-.276-.618 0-1.17.22-.54.221-.948.64-.397.408-.628 1.004-.232.596-.232 1.346 0 .65.232 1.235.231.584.628 1.025.408.442.949.695.551.254 1.169.254.617 0 1.158-.265.551-.275.96-.717.407-.452.639-1.025.243-.585.243-1.202zm10.025 3.12q.176.056.353.078.176.01.353.01.44 0 .849-.12.408-.122.761-.342.364-.232.64-.552.286-.33.463-.728l2.206 2.217q-.42.596-.97 1.07-.541.474-1.181.805-.629.33-1.334.496-.695.177-1.434.177-1.246 0-2.35-.463-1.091-.464-1.918-1.29-.817-.828-1.29-1.964-.475-1.147-.475-2.515 0-1.4.474-2.558t1.29-1.974q.828-.817 1.92-1.269 1.103-.452 2.349-.452.739 0 1.445.177.705.176 1.334.507.64.33 1.191.816.552.474.97 1.07zm1.544-6.209q-.21-.077-.42-.099-.198-.022-.418-.022-.618 0-1.17.232-.54.22-.948.64-.397.418-.628 1.014-.232.585-.232 1.324 0 .165.011.375.022.21.055.43.044.21.1.408.055.198.143.353zm9.32 7.974q0 .397-.144.75-.143.342-.397.596-.254.253-.596.397-.341.154-.739.154-.386 0-.738-.154-.342-.144-.607-.397-.254-.254-.408-.596-.143-.353-.143-.75 0-.386.143-.728.154-.341.408-.595.265-.254.607-.397.352-.155.738-.155.398 0 .74.155.341.143.595.397.254.254.397.595.143.342.143.728zm8.723 1.125H6.192v-3h6.882q.31 0 .53-.22.22-.22.22-.53 0-.32-.22-.419-.22-.099-.53-.099H9.942q-.783 0-1.467-.298-.684-.297-1.19-.805-.508-.518-.806-1.202-.287-.684-.287-1.467t.287-1.467q.298-.683.805-1.19.507-.508 1.191-.795.684-.298 1.467-.298h6.099v3H9.942q-.309 0-.53.22-.22.221-.22.53 0 .32.22.552.221.22.53.22h3.132q.772 0 1.456.265.684.254 1.191.717.508.463.805 1.114.298.65.298 1.422 0 .783-.298 1.467-.297.673-.805 1.191-.507.508-1.19.806-.685.286-1.457.286zm11.272 0q-1.092 0-2.052-.408-.96-.419-1.687-1.136-.717-.728-1.136-1.687-.408-.96-.408-2.052v-3.507h-1.467v-3h1.467V-50h3v4.72h4.566v3h-4.566v3.507q0 .475.176.894.177.408.486.717.308.308.727.496.42.176.894.176h2.283v3zm15.407 0h-.728l-1.169-1.621q-.43.386-.915.728-.474.33-1.004.584-.53.243-1.092.386-.551.144-1.125.144-1.246 0-2.349-.42-1.092-.418-1.919-1.212-.816-.806-1.29-1.964-.474-1.158-.474-2.635 0-1.38.474-2.526.474-1.158 1.29-1.985.827-.827 1.92-1.28 1.102-.463 2.348-.463.574 0 1.136.143.563.144 1.092.398.53.253 1.004.595.485.342.904.739l1.17-1.4h.727zM36.72-39.5q0-.618-.242-1.192-.232-.584-.64-1.025-.408-.452-.96-.717-.54-.276-1.158-.276-.617 0-1.169.21-.54.21-.948.617-.397.408-.629 1.015-.231.595-.231 1.368 0 .772.231 1.378.232.596.629 1.004.408.408.948.617.552.21 1.17.21.617 0 1.157-.265.552-.276.96-.717.408-.452.64-1.025.242-.585.242-1.202zm8.338 6.01h-3.01v-11.812h.727l.993 1.401q.728-.662 1.654-1.015.926-.364 1.919-.364h2.658v3h-2.658q-.474 0-.893.177-.42.176-.728.485-.309.309-.485.728-.177.419-.177.893z" />
  <path id="star" fill="#d6b74b" d="m-34.879-45.764-2.762 1.594 1.81 3.134h-3.62v3.189h3.616l-1.806 3.13 2.762 1.595 1.81-3.13 1.806 3.13 2.763-1.595-1.807-3.13h3.613v-3.19h-3.616l1.81-3.133-2.763-1.594-1.806 3.133z" />
  </svg>