<svg xmlns="http://www.w3.org/2000/svg" width="1000" height="250" viewBox="-50 -50 100 25">
  <path id="codestar" fill="#f1e7da" d="m-39.026-42.953-2.206 2.217q-.165-.463-.452-.827-.287-.375-.65-.629-.354-.253-.773-.386-.419-.132-.86-.132-.618 0-1.17.254-.54.253-.948.717-.397.452-.628 1.08-.232.63-.232 1.39 0 .618.232 1.158.231.54.628.949.408.408.949.64.551.23 1.169.23.441 0 .849-.12.408-.122.761-.342.364-.232.64-.552.286-.33.463-.728l2.206 2.217q-.42.596-.97 1.07-.541.474-1.18.805-.63.33-1.335.496-.695.177-1.434.177-1.246 0-2.35-.463-1.091-.475-1.918-1.29-.817-.817-1.29-1.909Q-50-38.023-50-39.269q0-1.356.474-2.537.474-1.18 1.29-2.05.828-.883 1.92-1.39 1.103-.508 2.349-.508.739 0 1.445.188.716.187 1.356.551.65.353 1.191.871.552.519.949 1.191zm25.52 9.463h-.727l-1.17-1.621q-.43.386-.915.728-.474.33-1.003.584-.53.243-1.092.386-.552.144-1.125.144-1.246 0-2.35-.463-1.091-.475-1.918-1.302-.817-.838-1.29-1.974-.475-1.147-.475-2.492 0-1.335.474-2.482.474-1.147 1.29-1.985.828-.838 1.92-1.313 1.103-.474 2.349-.474.397 0 .816.066.43.066.827.22.408.144.761.387.353.243.596.595V-50h3.033zm-3.032-6.01q0-.618-.243-1.192-.232-.584-.64-1.025-.408-.452-.96-.717-.54-.276-1.157-.276-.618 0-1.17.22-.54.221-.948.64-.397.408-.628 1.004-.232.596-.232 1.346 0 .65.232 1.235.231.584.628 1.025.408.442.949.695.551.254 1.169.254.617 0 1.158-.265.551-.275.96-.717.407-.452.639-1.025.243-.585.243-1.202zm10.025 3.12q.176.056.353.078.176.01.353.01.44 0 .849-.12.408-.122.761-.342.364-.232.64-.552.286-.33.463-.728l2.206 2.217q-.42.596-.97 1.07-.541.474-1.181.805-.629.33-1.334.496-.695.177-1.434.177-1.246 0-2.35-.463-1.091-.464-1.918-1.29-.817-.828-1.29-1.964-.475-1.147-.475-2.515 0-1.4.474-2.558t1.29-1.974q.828-.817 1.92-1.269 1.103-.452 2.349-.452.739 0 1.445.177.705.176 1.334.507.64.33 1.191.816.552.474.97 1.07zm1.544-6.209q-.21-.077-.42-.099-.198-.022-.418-.022-.618 0-1.17.232-.54.22-.948.64-.397.418-.628 1.014-.232.585-.232 1.324 0 .165.011.375.022.21.055.43.044.21.1.408.055.198.143.353zm9.32 7.974q0 .397-.144.75-.143.342-.397.596-.254.253-.596.397-.341.154-.739.154-.386 0-.738-.154-.342-.144-.607-.397-.254-.254-.408-.596-.143-.353-.143-.75 0-.386.143-.728.154-.341.408-.595.265-.254.607-.397.352-.155.738-.155.398 0 .74.155.341.143.595.397.254.254.397.595.143.342.143.728zm8.723 1.125H6.192v-3h6.882q.31 0 .53-.22.22-.22.22-.53 0-.32-.22-.419-.22-.099-.53-.099H9.942q-.783 0-1.467-.298-.684-.297-1.19-.805-.508-.518-.806-1.202-.287-.684-.287-1.467t.287-1.467q.298-.683.805-1.19.507-.508 1.191-.795.684-.298 1.467-.298h6.099v3H9.942q-.309 0-.53.22-.22.221-.22.53 0 .32.22.552.221.22.53.22h3.132q.772 0 1.456.265.684.254 1.191.717.508.463.805 1.114.298.65.298 1.422 0 .783-.298 1.467-.297.673-.805 1.191-.507.508-1.19.806-.685.286-1.457.286zm11.272 0q-1.092 0-2.052-.408-.96-.419-1.687-1.136-.717-.728-1.136-1.687-.408-.96-.408-2.052v-3.507h-1.467v-3h1.467V-50h3v4.72h4.566v3h-4.566v3.507q0 .475.176.894.177.408.486.717.308.308.727.496.42.176.894.176h2.283v3zm15.407 0h-.728l-1.169-1.621q-.43.386-.915.728-.474.33-1.004.584-.53.243-1.092.386-.551.144-1.125.144-1.246 0-2.349-.42-1.092-.418-1.919-1.212-.816-.806-1.29-1.964-.474-1.158-.474-2.635 0-1.38.474-2.526.474-1.158 1.29-1.985.827-.827 1.92-1.28 1.102-.463 2.348-.463.574 0 1.136.143.563.144 1.092.398.53.253 1.004.595.485.342.904.739l1.17-1.4h.727zM36.72-39.5q0-.618-.242-1.192-.232-.584-.64-1.025-.408-.452-.96-.717-.54-.276-1.158-.276-.617 0-1.169.21-.54.21-.948.617-.397.408-.629 1.015-.231.595-.231 1.368 0 .772.231 1.378.232.596.629 1.004.408.408.948.617.552.21 1.17.21.617 0 1.157-.265.552-.276.96-.717.408-.452.64-1.025.242-.585.242-1.202zm8.338 6.01h-3.01v-11.812h.727l.993 1.401q.728-.662 1.654-1.015.926-.364 1.919-.364h2.658v3h-2.658q-.474 0-.893.177-.42.176-.728.485-.309.309-.485.728-.177.419-.177.893z" />
  <path id="star" fill="#b03a48" d="m-34.879-45.764-2.762 1.594 1.81 3.134h-3.62v3.189h3.616l-1.806 3.13 2.762 1.595 1.81-3.13 1.806 3.13 2.763-1.595-1.807-3.13h3.613v-3.19h-3.616l1.81-3.133-2.763-1.594-1.806 3.133z" />
  <path id="tagline" fill="#f1e7da" d="M-3.86-29.027q.007-.04.007-.12 0-.254-.167-.422-.167-.175-.43-.175-.16 0-.303.064-.136.055-.256.151-.111.096-.191.231-.072.128-.096.271l-.151.877q-.008.04-.008.12 0 .255.167.43.168.168.43.168.152 0 .296-.056.143-.056.255-.151.12-.104.191-.231.08-.136.104-.28zm.342 2.153q-.008.08-.095.08h-.479q-.063 0-.063-.056v-.024l.015-.096v-.023q0-.072-.055-.072-.032 0-.096.048-.064.04-.167.087-.096.048-.24.096-.143.04-.327.04-.526 0-.845-.295-.319-.295-.319-.797 0-.128.024-.264l.152-.877q.048-.295.191-.542.152-.255.367-.43.215-.184.486-.28.28-.103.582-.103.168 0 .287.04.128.04.216.095.087.048.143.088.056.04.096.04.048 0 .072-.088l.023-.095q.016-.04.024-.056.016-.024.064-.024h.479q.071 0 .071.064v.016zm4.434-3.588q.27 0 .478.072.215.064.367.175.151.112.23.256.08.143.08.295 0 .04-.055.063l-.502.232-.048.015q-.016 0-.048-.047-.12-.2-.24-.32-.119-.127-.366-.127h-.24q-.318 0-.494.136-.167.135-.167.343 0 .12.056.19.063.065.175.113.12.047.287.087.168.04.39.088.495.112.734.279.248.167.248.51 0 .287-.12.542-.112.248-.319.439-.2.183-.486.295-.28.112-.622.112h-.24q-.279 0-.494-.072-.215-.072-.367-.184-.143-.12-.223-.255-.072-.143-.072-.287 0-.04.056-.063l.503-.232q.015-.008.023-.008.008-.008.024-.008t.056.048q.056.088.104.176.056.08.12.143.071.056.159.096.088.032.223.032h.24q.302 0 .494-.152.191-.16.191-.367 0-.12-.064-.183-.056-.072-.175-.112-.112-.047-.287-.08-.176-.04-.399-.087-.486-.112-.725-.271-.232-.16-.232-.51 0-.287.112-.535.12-.247.319-.43.2-.192.47-.295.28-.112.606-.112zm3.906 1.356q.008-.032.008-.064v-.064q0-.255-.175-.423-.167-.167-.447-.167-.143 0-.279.064-.135.056-.255.151-.111.096-.191.232-.072.127-.096.27l-.183 1.037q-.008.04-.008.072v.056q0 .255.167.422.168.168.43.168.152 0 .296-.056.143-.056.255-.152.112-.103.191-.23.08-.136.104-.28zm.535 1.036q-.056.303-.2.55-.143.247-.366.43-.216.176-.503.28-.279.096-.606.096-.574 0-.9-.287-.32-.295-.32-.79 0-.135.024-.279l.184-1.036q.055-.303.199-.55.143-.256.359-.431.223-.183.502-.28.287-.095.614-.095.574 0 .893.295.327.287.327.782 0 .135-.024.279zm3.117-.957q.008-.04.008-.12 0-.254-.167-.422-.168-.175-.455-.175-.143 0-.279.064-.135.055-.255.151-.112.096-.191.231-.072.128-.096.271l-.151.877q-.008.04-.008.12 0 .255.167.43.167.168.43.168.152 0 .296-.056.143-.056.255-.151.12-.104.191-.231.08-.136.104-.28zm.566.877q-.048.272-.191.527-.144.247-.375.454-.406.375-1.028.375-.144 0-.263-.04-.112-.04-.2-.088-.08-.055-.143-.095-.056-.04-.096-.04-.048 0-.064.087l-.335 1.89q-.008.08-.095.08h-.558q-.064 0-.064-.056v-.024l.925-5.222q.008-.08.087-.08h.479q.071 0 .071.08l-.023.095v.024q0 .072.047.072.024 0 .088-.04.064-.048.168-.096.103-.047.247-.087.143-.048.335-.048.526 0 .845.295.319.295.319.797 0 .136-.024.263zm2.934-1.53q-.015.08-.063.08-.056 0-.152-.025-.088-.032-.231-.032-.335 0-.558.192-.215.183-.28.518l-.366 2.073q-.008.08-.096.08H9.67q-.064 0-.064-.056v-.024l.606-3.428q.008-.08.088-.08h.478q.072 0 .072.064v.016l-.048.255v.024q0 .071.056.071.032 0 .104-.063.072-.072.175-.152.112-.08.24-.143.135-.072.286-.072.232 0 .32.016.095.008.095.072v.016zm2.408.653q.008-.04.008-.12 0-.254-.167-.422-.168-.175-.43-.175-.16 0-.304.064-.135.055-.255.151-.111.096-.191.231-.072.128-.096.271l-.151.877q-.008.04-.008.12 0 .255.167.43.168.168.43.168.152 0 .296-.056.143-.056.255-.151.12-.104.191-.231.08-.136.104-.28zm.343 2.153q-.008.08-.095.08h-.479q-.064 0-.064-.056v-.024l.016-.096v-.023q0-.072-.055-.072-.032 0-.096.048-.064.04-.168.087-.095.048-.239.096-.143.04-.327.04-.526 0-.845-.295-.319-.295-.319-.797 0-.128.024-.264l.152-.877q.047-.295.191-.542.151-.255.367-.43.215-.184.486-.28.28-.103.582-.103.168 0 .287.04.128.04.215.095.088.048.144.088.056.04.096.04.047 0 .071-.088l.024-.095q.016-.04.024-.056.016-.024.064-.024h.478q.072 0 .072.064v.016zm4.433-3.588q.271 0 .479.072.215.064.367.175.151.112.23.256.08.143.08.295 0 .04-.055.063l-.503.232-.047.015q-.016 0-.048-.047-.12-.2-.24-.32-.12-.127-.366-.127h-.24q-.318 0-.494.136-.167.135-.167.343 0 .12.056.19.063.065.175.113.12.047.287.087.167.04.39.088.495.112.734.279.247.167.247.51 0 .287-.12.542-.11.248-.318.439-.2.183-.486.295-.28.112-.622.112h-.24q-.279 0-.494-.072-.215-.072-.367-.184-.143-.12-.223-.255-.072-.143-.072-.287 0-.04.056-.063l.502-.232q.016-.008.024-.008.008-.008.024-.008t.056.048q.056.088.104.176.056.08.12.143.071.056.159.096.087.032.223.032h.24q.302 0 .494-.152.19-.16.19-.367 0-.12-.063-.183-.056-.072-.175-.112-.112-.047-.287-.08-.176-.04-.399-.087-.486-.112-.726-.271-.23-.16-.23-.51 0-.287.11-.535.12-.247.32-.43.2-.192.47-.295.28-.112.606-.112zm3.564.638q-.008.08-.095.08h-.558q-.072 0-.096.08l-.28 1.594q-.007.04-.007.072v.056q0 .223.135.382.144.152.407.2.048.024.048.064v.016l-.088.478q-.024.08-.16.08-.223 0-.422-.08-.191-.08-.343-.223-.143-.144-.23-.343-.08-.207-.08-.455 0-.111.023-.247l.28-1.594v-.024q0-.056-.064-.056h-.439q-.072 0-.072-.048v-.016q.008-.008.008-.016l.064-.279 1.092-.973.056-.024h.247q.064 0 .064.056v.024l-.096.558v.024q0 .056.064.056h.558q.072 0 .072.064v.016zm2.368.797q.112 0 .112-.215 0-.24-.175-.407-.176-.175-.43-.175-.16 0-.312.072-.151.064-.27.175-.12.104-.192.24-.072.127-.072.255 0 .055.064.055zm.718.479q-.008.08-.096.08H23.72q-.088 0-.096.08l-.055.318q-.008.032-.008.064v.064q0 .247.167.422.167.168.43.168.312 0 .527-.216.135-.127.191-.207.064-.088.104-.088.016 0 .048.016l.462.256q.032.016.032.04 0 .063-.136.239-.135.167-.43.366-.16.104-.399.168-.231.064-.51.064-.574 0-.901-.287-.319-.295-.319-.79 0-.135.024-.279l.183-1.036q.032-.176.112-.36.088-.183.223-.342.263-.319.614-.486.351-.168.726-.168.27 0 .494.088.223.088.383.247.16.152.247.359.088.207.088.446v.112q0 .048-.016.104zm2.815-1.132q-.016.08-.064.08-.056 0-.152-.025-.087-.032-.23-.032-.336 0-.559.192-.215.183-.279.518l-.367 2.073q-.008.08-.095.08h-.559q-.063 0-.063-.056v-.024l.606-3.428q.008-.08.087-.08h.479q.071 0 .071.064v.016l-.047.255v.024q0 .071.055.071.032 0 .104-.063.072-.072.175-.152.112-.08.24-.143.135-.072.287-.072.23 0 .319.016.095.008.095.072v.016zm.789 2.806q-.008.08-.096.08h-.558q-.064 0-.064-.056v-.024l.606-3.428q.008-.08.088-.08h.558q.072 0 .072.064v.016zm.893-4.656q0 .207-.16.359-.15.151-.366.151-.16 0-.263-.104-.104-.103-.104-.263 0-.207.16-.359.159-.151.366-.151.168 0 .263.104.104.095.104.263zm2.344 2.503q.008-.04.008-.12 0-.254-.167-.422-.168-.175-.43-.175-.16 0-.304.064-.135.055-.255.151-.112.096-.191.231-.072.128-.096.271l-.151.877q-.008.04-.008.12 0 .255.167.43.167.168.43.168.152 0 .296-.056.143-.056.255-.151.12-.104.191-.231.08-.136.104-.28zm.343 2.153q-.008.08-.096.08h-.478q-.064 0-.064-.056v-.024l.016-.096v-.023q0-.072-.056-.072-.032 0-.095.048-.064.04-.168.087-.096.048-.239.096-.144.04-.327.04-.526 0-.845-.295-.319-.295-.319-.797 0-.128.024-.264l.151-.877q.048-.295.192-.542.151-.255.367-.43.215-.184.486-.28.279-.103.582-.103.167 0 .287.04.128.04.215.095.088.048.144.088.056.04.095.04.048 0 .072-.088l.024-.095q.016-.04.024-.056.016-.024.064-.024h.478q.072 0 .072.064v.016zm4.577-2.95q-.008.08-.096.08h-.558q-.072 0-.096.08l-.279 1.594q-.008.04-.008.072v.056q0 .223.136.382.143.152.406.2.048.024.048.064v.016l-.088.478q-.023.08-.159.08-.223 0-.423-.08-.191-.08-.342-.223-.144-.144-.232-.343-.08-.207-.08-.455 0-.111.024-.247l.28-1.594v-.024q0-.056-.064-.056h-.439q-.072 0-.072-.048v-.016q.008-.008.008-.016l.064-.279 1.093-.973.055-.024h.248q.063 0 .063.056v.024l-.095.558v.024q0 .056.063.056h.559q.071 0 .071.064v.016zm2.368.797q.111 0 .111-.215 0-.24-.175-.407-.175-.175-.43-.175-.16 0-.312.072-.151.064-.27.175-.12.104-.192.24-.072.127-.072.255 0 .055.064.055zm.717.479q-.008.08-.095.08h-1.994q-.087 0-.095.08l-.056.318q-.008.032-.008.064v.064q0 .247.167.422.168.168.43.168.312 0 .527-.216.136-.127.191-.207.064-.088.104-.088.016 0 .048.016l.462.256q.032.016.032.04 0 .063-.135.239-.136.167-.43.366-.16.104-.4.168-.23.064-.51.064-.574 0-.9-.287-.32-.295-.32-.79 0-.135.024-.279l.184-1.036q.031-.176.111-.36.088-.183.223-.342.264-.319.614-.486.351-.168.726-.168.271 0 .494.088.224.088.383.247.16.152.247.359.088.207.088.446v.112q0 .048-.016.104zm2.863-.479q.008-.04.008-.12 0-.254-.168-.422-.167-.175-.43-.175-.16 0-.303.064-.136.055-.255.151-.112.096-.192.231-.072.128-.095.271l-.152.877q-.008.04-.008.12 0 .255.168.43.167.168.43.168.152 0 .295-.056.144-.056.255-.151.12-.104.192-.231.08-.136.103-.28zm.343 2.153q-.008.08-.096.08h-.478q-.064 0-.064-.056v-.024l.016-.096v-.023q0-.072-.056-.072-.032 0-.096.048-.064.04-.167.087-.096.048-.24.096-.143.04-.326.04-.527 0-.846-.295-.318-.295-.318-.797 0-.128.023-.264l.152-.877q.048-.295.191-.542.152-.255.367-.43.215-.184.486-.28.28-.103.582-.103.168 0 .288.04.127.04.215.095.088.048.143.088.056.04.096.04.048 0 .072-.088l.024-.095q.016-.04.024-.056.016-.024.063-.024h.479q.072 0 .072.064v.016zm5.74 0q-.008.08-.095.08h-.558q-.064 0-.064-.056v-.024l.374-2.153q.008-.04.008-.12 0-.254-.151-.422-.144-.175-.367-.175-.12 0-.247.064-.12.055-.231.151-.104.096-.184.231-.08.128-.103.271l-.375 2.153q-.008.08-.096.08h-.558q-.064 0-.064-.056v-.024l.375-2.153q.008-.04.008-.12 0-.254-.151-.422-.144-.175-.367-.175-.12 0-.247.064-.128.055-.24.151-.103.096-.183.231-.072.128-.096.271l-.374 2.153q-.008.08-.096.08h-.558q-.064 0-.064-.056v-.024l.606-3.428q.008-.08.088-.08h.478q.08 0 .08.048 0 .008-.008.016v.016l-.024.103q0 .016-.008.024v.008q0 .056.048.056.04 0 .111-.04.072-.048.168-.095.104-.048.24-.088.135-.048.294-.048.215 0 .359.064.151.064.247.135.096.072.144.136.055.064.08.064.031 0 .103-.056.08-.064.215-.152.311-.191.742-.191.526 0 .829.303.311.303.311.79 0 .135-.024.262z" />
</svg>